<svg height="40" viewBox="0 0 40 40" width="40" xmlns="http://www.w3.org/2000/svg"><g fill="#fff" transform="translate(-3.375 -3.375)"><path d="m10.523 24.5a1.863 1.863 0 0 1 0-2.625l9.2-9.173a1.854 1.854 0 0 1 2.558-.058l9.067 9.038a1.853 1.853 0 1 1 -2.615 2.625l-7.788-7.673-7.8 7.875a1.854 1.854 0 0 1 -2.622-.009z" transform="translate(2.428 3.229)"/><path d="m23.375 43.375a20 20 0 1 0 -20-20 20 20 0 0 0 20 20zm0-3.077a16.916 16.916 0 0 1 -11.962-28.885 16.916 16.916 0 1 1 23.924 23.924 16.778 16.778 0 0 1 -11.962 4.963z"/></g></svg>